<svg height="16" width="16" xmlns="http://www.w3.org/2000/svg"><path d="m6.75 14c-.4156821 0-.7504099-.348078-.75-.779297v-5.216797h-2.75c-.41568 0-.75-.3461251-.75-.7773435 0-.2324095.0972511-.4396467.2519531-.5820313l4.2246094-4.4316402c.1343797-.13161.3142797-.212891.5136719-.212891.1993924 0 .3792918.081279.5136718.212891l4.2441408 4.4316402c.15471.1423846.251953.3496218.251953.5820313 0 .4312184-.334318.7773435-.75.7773435h-2.75v5.216797c0 .431219-.3343184.779297-.75.779297zm.7402344-12h-3.7402344c-.4155 0-.75-.3345-.75-.75v-.5c0-.4155.3345-.75.75-.75h7.5c.4155 0 .75.3345.75.75v.5c0 .4155-.3345.75-.75.75z" fill="#555761"/></svg>